# Blender 4.3.2
# www.blender.org
mtllib cylinder_arrow.mtl
o Plane
v -0.364589 0.000000 0.386825
v -0.234998 0.000000 0.386825
v -0.364589 0.000000 0.423976
v -0.461471 0.000000 0.362328
v -0.234998 0.000000 0.362328
v -0.364589 -0.004779 0.386354
v -0.234998 -0.004779 0.386354
v -0.364589 -0.012027 0.422791
v -0.364589 -0.009375 0.384960
v -0.234998 -0.009375 0.384960
v -0.364589 -0.023592 0.419283
v -0.364589 -0.013610 0.382697
v -0.234998 -0.013610 0.382697
v -0.364589 -0.034250 0.413586
v -0.364589 -0.017322 0.379650
v -0.234998 -0.017322 0.379650
v -0.364589 -0.043592 0.405920
v -0.364589 -0.020369 0.375938
v -0.234998 -0.020369 0.375938
v -0.364589 -0.051259 0.396578
v -0.364589 -0.022632 0.371703
v -0.234998 -0.022632 0.371703
v -0.364589 -0.056955 0.385920
v -0.364589 -0.024027 0.367107
v -0.234998 -0.024027 0.367107
v -0.364589 -0.060464 0.374355
v -0.364589 -0.024497 0.362328
v -0.234998 -0.024497 0.362328
v -0.364589 -0.061648 0.362328
v -0.364589 -0.024027 0.357549
v -0.234998 -0.024027 0.357549
v -0.364589 -0.060464 0.350301
v -0.364589 -0.022632 0.352953
v -0.234998 -0.022632 0.352953
v -0.364589 -0.056955 0.338736
v -0.364589 -0.020369 0.348718
v -0.234998 -0.020369 0.348718
v -0.364589 -0.051259 0.328078
v -0.364589 -0.017322 0.345006
v -0.234998 -0.017322 0.345006
v -0.364589 -0.043592 0.318736
v -0.364589 -0.013610 0.341959
v -0.234998 -0.013610 0.341959
v -0.364589 -0.034250 0.311069
v -0.364589 -0.009375 0.339695
v -0.234998 -0.009375 0.339695
v -0.364589 -0.023592 0.305372
v -0.364589 -0.004779 0.338301
v -0.234998 -0.004779 0.338301
v -0.364589 -0.012027 0.301864
v -0.364589 0.000000 0.337831
v -0.234998 0.000000 0.337831
v -0.364589 0.000000 0.300680
v -0.364589 0.004779 0.338301
v -0.234998 0.004779 0.338301
v -0.364589 0.012027 0.301864
v -0.364589 0.009375 0.339695
v -0.234998 0.009375 0.339695
v -0.364589 0.023592 0.305372
v -0.364589 0.013610 0.341959
v -0.234998 0.013610 0.341959
v -0.364589 0.034250 0.311069
v -0.364589 0.017322 0.345006
v -0.234998 0.017322 0.345006
v -0.364589 0.043592 0.318736
v -0.364589 0.020369 0.348718
v -0.234998 0.020369 0.348718
v -0.364589 0.051259 0.328078
v -0.364589 0.022632 0.352953
v -0.234998 0.022632 0.352953
v -0.364589 0.056955 0.338736
v -0.364589 0.024027 0.357549
v -0.234998 0.024027 0.357549
v -0.364589 0.060464 0.350301
v -0.364589 0.024497 0.362328
v -0.234998 0.024497 0.362328
v -0.364589 0.061648 0.362328
v -0.364589 0.024027 0.367107
v -0.234998 0.024027 0.367107
v -0.364589 0.060464 0.374355
v -0.364589 0.022632 0.371703
v -0.234998 0.022632 0.371703
v -0.364589 0.056955 0.385920
v -0.364589 0.020369 0.375938
v -0.234998 0.020369 0.375938
v -0.364589 0.051259 0.396578
v -0.364589 0.017322 0.379650
v -0.234998 0.017322 0.379650
v -0.364589 0.043592 0.405920
v -0.364589 0.013610 0.382697
v -0.234998 0.013610 0.382697
v -0.364589 0.034250 0.413586
v -0.364589 0.009375 0.384960
v -0.234998 0.009375 0.384960
v -0.364589 0.023592 0.419283
v -0.364589 0.004779 0.386354
v -0.234998 0.004779 0.386354
v -0.364589 0.012027 0.422791
vn 1.0000 -0.0000 -0.0000
vn -0.0000 -0.0000 1.0000
vn -0.0000 -0.1951 0.9808
vn -0.0000 -0.3827 0.9239
vn -0.0000 -0.5556 0.8315
vn -0.0000 -0.7071 0.7071
vn -0.0000 -0.8315 0.5556
vn -0.0000 -0.9239 0.3827
vn -0.0000 -0.9808 0.1951
vn -0.0000 -1.0000 -0.0000
vn -0.0000 -0.9808 -0.1951
vn -0.0000 -0.9239 -0.3827
vn -0.0000 -0.8315 -0.5556
vn -0.0000 -0.7071 -0.7071
vn -0.0000 -0.5556 -0.8315
vn -0.0000 -0.3827 -0.9239
vn -0.0000 -0.1951 -0.9808
vn -0.0000 -0.0000 -1.0000
vn -0.0000 0.1951 -0.9808
vn -0.0000 0.3827 -0.9239
vn -0.0000 0.5556 -0.8315
vn -0.0000 0.7071 -0.7071
vn -0.0000 0.8315 -0.5556
vn -0.0000 0.9239 -0.3827
vn -0.0000 0.9808 -0.1951
vn -0.0000 1.0000 -0.0000
vn -0.0000 0.9808 0.1951
vn -0.0000 0.9239 0.3827
vn -0.0000 0.8315 0.5556
vn -0.0000 0.7071 0.7071
vn -0.0000 0.5556 0.8315
vn -0.0000 0.3827 0.9239
vn -0.0000 0.1951 0.9808
vn -0.5369 -0.0000 0.8437
vn -1.0000 -0.0000 -0.0000
vn -0.5369 -0.1646 0.8275
vn -0.5369 -0.3229 0.7795
vn -0.5369 -0.4687 0.7015
vn -0.5369 -0.5966 0.5966
vn -0.5369 -0.7015 0.4687
vn -0.5369 -0.7795 0.3229
vn -0.5369 -0.8275 0.1646
vn -0.5369 -0.8437 -0.0000
vn -0.5369 -0.8275 -0.1646
vn -0.5369 -0.7795 -0.3229
vn -0.5369 -0.7015 -0.4687
vn -0.5369 -0.5966 -0.5966
vn -0.5369 -0.4687 -0.7015
vn -0.5369 -0.3229 -0.7795
vn -0.5369 -0.1646 -0.8275
vn -0.5369 -0.0000 -0.8437
vn -0.5369 0.1646 -0.8275
vn -0.5369 0.3229 -0.7795
vn -0.5369 0.4687 -0.7015
vn -0.5369 0.5966 -0.5966
vn -0.5369 0.7015 -0.4687
vn -0.5369 0.7795 -0.3229
vn -0.5369 0.8275 -0.1646
vn -0.5369 0.8437 -0.0000
vn -0.5369 0.8275 0.1646
vn -0.5369 0.7795 0.3229
vn -0.5369 0.7015 0.4687
vn -0.5369 0.5966 0.5966
vn -0.5369 0.4687 0.7015
vn -0.5369 0.3229 0.7795
vn -0.5369 0.1646 0.8275
vt 0.000000 0.000000
vt 0.031250 0.000000
vt 0.062500 0.000000
vt 0.093750 0.000000
vt 0.125000 0.000000
vt 0.156250 0.000000
vt 0.187500 0.000000
vt 0.218750 0.000000
vt 0.250000 0.000000
vt 0.281250 0.000000
vt 0.312500 0.000000
vt 0.343750 0.000000
vt 0.375000 0.000000
vt 0.406250 0.000000
vt 0.437500 0.000000
vt 0.468750 0.000000
vt 0.500000 0.000000
vt 0.531250 0.000000
vt 0.562500 0.000000
vt 0.593750 0.000000
vt 0.625000 0.000000
vt 0.656250 0.000000
vt 0.687500 0.000000
vt 0.718750 0.000000
vt 0.750000 0.000000
vt 0.781250 0.000000
vt 0.812500 0.000000
vt 0.843750 0.000000
vt 0.875000 0.000000
vt 0.906250 0.000000
vt 0.937500 0.000000
vt 0.968750 0.000000
vt 1.000000 0.000000
vt 0.015625 0.000000
vt 0.046875 0.000000
vt 0.078125 0.000000
vt 0.109375 0.000000
vt 0.140625 0.000000
vt 0.171875 0.000000
vt 0.203125 0.000000
vt 0.234375 0.000000
vt 0.265625 0.000000
vt 0.296875 0.000000
vt 0.328125 0.000000
vt 0.359375 0.000000
vt 0.390625 0.000000
vt 0.421875 0.000000
vt 0.453125 0.000000
vt 0.484375 0.000000
vt 0.515625 0.000000
vt 0.546875 0.000000
vt 0.578125 0.000000
vt 0.609375 0.000000
vt 0.640625 0.000000
vt 0.671875 0.000000
vt 0.703125 0.000000
vt 0.734375 0.000000
vt 0.765625 0.000000
vt 0.796875 0.000000
vt 0.828125 0.000000
vt 0.859375 0.000000
vt 0.890625 0.000000
vt 0.921875 0.000000
vt 0.953125 0.000000
vt 0.984375 0.000000
s 1
f 1/1/1 3/1/1 8/2/1 6/2/1
f 6/2/1 8/2/1 11/3/1 9/3/1
f 9/3/1 11/3/1 14/4/1 12/4/1
f 12/4/1 14/4/1 17/5/1 15/5/1
f 15/5/1 17/5/1 20/6/1 18/6/1
f 18/6/1 20/6/1 23/7/1 21/7/1
f 21/7/1 23/7/1 26/8/1 24/8/1
f 24/8/1 26/8/1 29/9/1 27/9/1
f 27/9/1 29/9/1 32/10/1 30/10/1
f 30/10/1 32/10/1 35/11/1 33/11/1
f 33/11/1 35/11/1 38/12/1 36/12/1
f 36/12/1 38/12/1 41/13/1 39/13/1
f 39/13/1 41/13/1 44/14/1 42/14/1
f 42/14/1 44/14/1 47/15/1 45/15/1
f 45/15/1 47/15/1 50/16/1 48/16/1
f 48/16/1 50/16/1 53/17/1 51/17/1
f 51/17/1 53/17/1 56/18/1 54/18/1
f 54/18/1 56/18/1 59/19/1 57/19/1
f 57/19/1 59/19/1 62/20/1 60/20/1
f 60/20/1 62/20/1 65/21/1 63/21/1
f 63/21/1 65/21/1 68/22/1 66/22/1
f 66/22/1 68/22/1 71/23/1 69/23/1
f 69/23/1 71/23/1 74/24/1 72/24/1
f 72/24/1 74/24/1 77/25/1 75/25/1
f 75/25/1 77/25/1 80/26/1 78/26/1
f 78/26/1 80/26/1 83/27/1 81/27/1
f 81/27/1 83/27/1 86/28/1 84/28/1
f 84/28/1 86/28/1 89/29/1 87/29/1
f 87/29/1 89/29/1 92/30/1 90/30/1
f 90/30/1 92/30/1 95/31/1 93/31/1
f 93/31/1 95/31/1 98/32/1 96/32/1
f 96/32/1 98/32/1 3/33/1 1/33/1
f 2/1/2 1/1/2 6/2/3 7/2/3
f 7/2/3 6/2/3 9/3/4 10/3/4
f 10/3/4 9/3/4 12/4/5 13/4/5
f 13/4/5 12/4/5 15/5/6 16/5/6
f 16/5/6 15/5/6 18/6/7 19/6/7
f 19/6/7 18/6/7 21/7/8 22/7/8
f 22/7/8 21/7/8 24/8/9 25/8/9
f 25/8/9 24/8/9 27/9/10 28/9/10
f 28/9/10 27/9/10 30/10/11 31/10/11
f 31/10/11 30/10/11 33/11/12 34/11/12
f 34/11/12 33/11/12 36/12/13 37/12/13
f 37/12/13 36/12/13 39/13/14 40/13/14
f 40/13/14 39/13/14 42/14/15 43/14/15
f 43/14/15 42/14/15 45/15/16 46/15/16
f 46/15/16 45/15/16 48/16/17 49/16/17
f 49/16/17 48/16/17 51/17/18 52/17/18
f 52/17/18 51/17/18 54/18/19 55/18/19
f 55/18/19 54/18/19 57/19/20 58/19/20
f 58/19/20 57/19/20 60/20/21 61/20/21
f 61/20/21 60/20/21 63/21/22 64/21/22
f 64/21/22 63/21/22 66/22/23 67/22/23
f 67/22/23 66/22/23 69/23/24 70/23/24
f 70/23/24 69/23/24 72/24/25 73/24/25
f 73/24/25 72/24/25 75/25/26 76/25/26
f 76/25/26 75/25/26 78/26/27 79/26/27
f 79/26/27 78/26/27 81/27/28 82/27/28
f 82/27/28 81/27/28 84/28/29 85/28/29
f 85/28/29 84/28/29 87/29/30 88/29/30
f 88/29/30 87/29/30 90/30/31 91/30/31
f 91/30/31 90/30/31 93/31/32 94/31/32
f 94/31/32 93/31/32 96/32/33 97/32/33
f 97/32/33 96/32/33 1/33/2 2/33/2
f 3/1/34 4/34/35 8/2/36
f 8/2/36 4/35/35 11/3/37
f 11/3/37 4/36/35 14/4/38
f 14/4/38 4/37/35 17/5/39
f 17/5/39 4/38/35 20/6/40
f 20/6/40 4/39/35 23/7/41
f 23/7/41 4/40/35 26/8/42
f 26/8/42 4/41/35 29/9/43
f 29/9/43 4/42/35 32/10/44
f 32/10/44 4/43/35 35/11/45
f 35/11/45 4/44/35 38/12/46
f 38/12/46 4/45/35 41/13/47
f 41/13/47 4/46/35 44/14/48
f 44/14/48 4/47/35 47/15/49
f 47/15/49 4/48/35 50/16/50
f 50/16/50 4/49/35 53/17/51
f 53/17/51 4/50/35 56/18/52
f 56/18/52 4/51/35 59/19/53
f 59/19/53 4/52/35 62/20/54
f 62/20/54 4/53/35 65/21/55
f 65/21/55 4/54/35 68/22/56
f 68/22/56 4/55/35 71/23/57
f 71/23/57 4/56/35 74/24/58
f 74/24/58 4/57/35 77/25/59
f 77/25/59 4/58/35 80/26/60
f 80/26/60 4/59/35 83/27/61
f 83/27/61 4/60/35 86/28/62
f 86/28/62 4/61/35 89/29/63
f 89/29/63 4/62/35 92/30/64
f 92/30/64 4/63/35 95/31/65
f 95/31/65 4/64/35 98/32/66
f 98/32/66 4/65/35 3/33/34
f 5/34/1 2/1/1 7/2/1
f 5/35/1 7/2/1 10/3/1
f 5/36/1 10/3/1 13/4/1
f 5/37/1 13/4/1 16/5/1
f 5/38/1 16/5/1 19/6/1
f 5/39/1 19/6/1 22/7/1
f 5/40/1 22/7/1 25/8/1
f 5/41/1 25/8/1 28/9/1
f 5/42/1 28/9/1 31/10/1
f 5/43/1 31/10/1 34/11/1
f 5/44/1 34/11/1 37/12/1
f 5/45/1 37/12/1 40/13/1
f 5/46/1 40/13/1 43/14/1
f 5/47/1 43/14/1 46/15/1
f 5/48/1 46/15/1 49/16/1
f 5/49/1 49/16/1 52/17/1
f 5/50/1 52/17/1 55/18/1
f 5/51/1 55/18/1 58/19/1
f 5/52/1 58/19/1 61/20/1
f 5/53/1 61/20/1 64/21/1
f 5/54/1 64/21/1 67/22/1
f 5/55/1 67/22/1 70/23/1
f 5/56/1 70/23/1 73/24/1
f 5/57/1 73/24/1 76/25/1
f 5/58/1 76/25/1 79/26/1
f 5/59/1 79/26/1 82/27/1
f 5/60/1 82/27/1 85/28/1
f 5/61/1 85/28/1 88/29/1
f 5/62/1 88/29/1 91/30/1
f 5/63/1 91/30/1 94/31/1
f 5/64/1 94/31/1 97/32/1
f 5/65/1 97/32/1 2/33/1
l 4 5
